<svg xmlns="http://www.w3.org/2000/svg" xmlns:xlink="http://www.w3.org/1999/xlink" viewBox="0 0 595.04 307.23">
  <defs>
    <linearGradient id="a" x1="18.07" y1="38.76" x2="123.75" y2="38.76" gradientUnits="userSpaceOnUse">
      <stop offset="0" stop-color="#faac65"/>
      <stop offset="0.41" stop-color="#f68657"/>
      <stop offset="1" stop-color="#f05345"/>
    </linearGradient>
    <linearGradient id="b" x1="78.36" y1="120.66" x2="176.19" y2="120.66" xlink:href="#a"/>
    <linearGradient id="c" x1="13.36" y1="97.33" x2="144.51" y2="97.33" xlink:href="#a"/>
    <clipPath id="e" transform="translate(73.04 62.14)">
      <path d="M0,0,63.41,77.52,84.59,51.65,42.34,0ZM63.51,0l42.23,51.62S120.58,33.5,120.6,33.46A12.26,12.26,0,0,0,120.54,18l-11-13.44A12.32,12.32,0,0,0,100,0Z" style="fill: url(#a)"/>
    </clipPath>
    <linearGradient id="f" x1="-7314.54" y1="-3702.75" x2="-7311.97" y2="-3702.75" gradientTransform="matrix(0, 47.46, 47.46, 0, 175777.47, 347102.41)" xlink:href="#a"/>
    <clipPath id="h" transform="translate(73.04 62.14)">
      <path d="M67,176.71H103.5a12.34,12.34,0,0,0,9.51-4.5l60.5-73.93a12.28,12.28,0,0,0,0-15.57l-14.8-18.1Z" style="fill: url(#b)"/>
    </clipPath>
    <linearGradient id="i" x1="-7508.94" y1="-3592.92" x2="-7506.37" y2="-3592.92" gradientTransform="matrix(-54.31, 0, 0, 54.31, -407601.6, 195240.11)" xlink:href="#a"/>
    <clipPath id="k" transform="translate(73.04 62.14)">
      <path d="M120.6,33.46s-14.86,18.16-14.86,18.16h0L3.37,176.71H45.74l96-117.29a12.28,12.28,0,0,0,0-15.57L120.54,18a12.26,12.26,0,0,1,.06,15.51" style="fill: url(#c)"/>
    </clipPath>
    <linearGradient id="l" x1="-7503.26" y1="-3639.81" x2="-7500.69" y2="-3639.81" gradientTransform="matrix(-76.79, 0, 0, 76.79, -575986.86, 279587.2)" xlink:href="#a"/>
  </defs>
  <title>Ресурс 3</title>
  <g>
    <path d="M269.51,67c7.07,8.56,9.65,18.61,7.74,30.29H223.2a19.33,19.33,0,0,0,19.15,14.12c8,0,13.72-3.25,17.39-9.77l15.07,6.79c-6.39,11.41-18.34,18.74-33,18.74-10.73,0-19.56-3.53-26.76-10.46s-10.73-15.62-10.73-25.94,3.53-19,10.59-25.94,15.76-10.46,26.22-10.46c11.81,0,21.18,4.21,28.38,12.63m-46,16.3h35.45c-2.58-8-9.24-13.17-17.79-13.17a18.42,18.42,0,0,0-17.66,13.17" transform="translate(73.04 62.14)" style="fill: #164781"/>
    <path d="M351.82,64.81c6.38,6.93,9.64,15.62,9.64,25.94s-3.26,19-9.64,25.94a31.38,31.38,0,0,1-24,10.46,29,29,0,0,1-22.28-9.64V153H287.17V55.71H305.5V64a29,29,0,0,1,22.28-9.64,31.38,31.38,0,0,1,24,10.46M324,110.44a17.19,17.19,0,0,0,13.18-5.7,19.51,19.51,0,0,0,5.3-14,19.51,19.51,0,0,0-5.3-14,18.37,18.37,0,0,0-26.35,0,19.72,19.72,0,0,0-5.3,14,19.51,19.51,0,0,0,5.3,14,17.18,17.18,0,0,0,13.17,5.7" transform="translate(73.04 62.14)" style="fill: #164781"/>
    <polygon points="462.07 161.18 495.49 117.85 513.28 117.85 513.28 187.93 494.94 187.93 494.94 144.6 461.53 187.93 443.74 187.93 443.74 117.85 462.07 117.85 462.07 161.18" style="fill: #164781"/>
    <polygon points="546.28 187.93 527.94 187.93 527.94 117.85 595.04 117.85 595.04 187.93 576.7 187.93 576.7 134.01 546.28 134.01 546.28 187.93" style="fill: #164781"/>
    <g>
      <g>
        <path d="M0,0,63.41,77.52,84.59,51.65,42.34,0ZM63.51,0l42.23,51.62S120.58,33.5,120.6,33.46A12.26,12.26,0,0,0,120.54,18l-11-13.44A12.32,12.32,0,0,0,100,0Z" transform="translate(73.04 62.14)" style="fill: url(#a)"/>
        <g style="clip-path: url(#e)">
          <rect x="-9.4" y="-32.39" width="143.12" height="142.3" transform="translate(63.64 116.55) rotate(-44.29)" style="fill: url(#f)"/>
        </g>
      </g>
      <g>
        <path d="M67,176.71H103.5a12.34,12.34,0,0,0,9.51-4.5l60.5-73.93a12.28,12.28,0,0,0,0-15.57l-14.8-18.1Z" transform="translate(73.04 62.14)" style="fill: url(#b)"/>
        <g style="clip-path: url(#h)">
          <rect x="44.14" y="42.88" width="155.92" height="155.57" transform="translate(25.23 207.26) rotate(-52.85)" style="fill: url(#i)"/>
        </g>
      </g>
      <g>
        <path d="M120.6,33.46s-14.86,18.16-14.86,18.16h0L3.37,176.71H45.74l96-117.29a12.28,12.28,0,0,0,0-15.57L120.54,18a12.26,12.26,0,0,1,.06,15.51" transform="translate(73.04 62.14)" style="fill: url(#c)"/>
        <g style="clip-path: url(#k)">
          <rect x="-31.76" y="-7.22" width="212.33" height="209.1" transform="translate(24.94 160) rotate(-52.85)" style="fill: url(#l)"/>
        </g>
      </g>
    </g>
  </g>
</svg>
