<svg xmlns="http://www.w3.org/2000/svg" xmlns:xlink="http://www.w3.org/1999/xlink" viewBox="0 0 522 177.13">
  <defs>
    <linearGradient id="e8c4e1ee-72e4-46de-8988-d51a5abb5367" x1="-7314.54" y1="-3702.67" x2="-7311.97" y2="-3702.67" gradientTransform="matrix(33.14, 33.97, 33.97, -33.14, 368180.27, 125794.42)" gradientUnits="userSpaceOnUse">
      <stop offset="0" stop-color="#faac65"/>
      <stop offset="0.41" stop-color="#f68657"/>
      <stop offset="1" stop-color="#f05345"/>
    </linearGradient>
    <linearGradient id="e6d91289-cfaa-45e8-929d-89d0d926f29c" x1="-7314.54" y1="-3701.69" x2="-7311.97" y2="-3701.69" xlink:href="#e8c4e1ee-72e4-46de-8988-d51a5abb5367"/>
    <linearGradient id="fce705dc-5bf3-4d9e-a8ee-8c142a168d92" x1="-7508.94" y1="-3592.54" x2="-7506.37" y2="-3592.54" gradientTransform="matrix(-32.79, 43.29, 43.29, 32.79, -90566.36, 442931.39)" xlink:href="#e8c4e1ee-72e4-46de-8988-d51a5abb5367"/>
    <linearGradient id="a39277ac-11aa-43ce-866d-9561fc163f08" x1="-7503.26" y1="-3639.45" x2="-7500.69" y2="-3639.45" gradientTransform="matrix(-46.37, 61.21, 61.21, 46.37, -125018.84, 628033.37)" xlink:href="#e8c4e1ee-72e4-46de-8988-d51a5abb5367"/>
    <linearGradient id="a5c3309c-f5ec-4436-a5d6-44174ee2ffd4" x1="-7314.54" y1="-3701.34" x2="-7311.97" y2="-3701.34" xlink:href="#e8c4e1ee-72e4-46de-8988-d51a5abb5367"/>
    <linearGradient id="e10734de-14ca-486b-9318-96feb0a55dfc" x1="-7503.26" y1="-3639.71" x2="-7500.69" y2="-3639.71" gradientTransform="matrix(-46.37, 61.21, 61.21, 46.37, -125018.84, 628033.37)" xlink:href="#e8c4e1ee-72e4-46de-8988-d51a5abb5367"/>
    <linearGradient id="f623836e-533b-42bf-9d0c-4af8828d141b" x1="-7314.54" y1="-3701.34" x2="-7311.97" y2="-3701.34" xlink:href="#e8c4e1ee-72e4-46de-8988-d51a5abb5367"/>
    <linearGradient id="eda24894-e6b0-4dd6-9642-4f7a85806801" x1="-7503.26" y1="-3639.73" x2="-7500.69" y2="-3639.73" gradientTransform="matrix(-46.37, 61.21, 61.21, 46.37, -125018.84, 628033.37)" xlink:href="#e8c4e1ee-72e4-46de-8988-d51a5abb5367"/>
    <linearGradient id="f062acab-dd57-49b1-962c-b9139dac6ab6" x1="-7314.54" y1="-3701.84" x2="-7311.97" y2="-3701.84" xlink:href="#e8c4e1ee-72e4-46de-8988-d51a5abb5367"/>
    <linearGradient id="b2bd18c6-78a4-4383-9e7c-71fc5f51bfc3" x1="-7503.26" y1="-3639.62" x2="-7500.69" y2="-3639.62" gradientTransform="matrix(-46.37, 61.21, 61.21, 46.37, -125018.84, 628033.37)" xlink:href="#e8c4e1ee-72e4-46de-8988-d51a5abb5367"/>
  </defs>
  <title>Ресурс 6</title>
  <g id="a0a3fb96-8894-43a7-a6c7-226ed42ab2fc" data-name="Слой 2">
    <g id="ae9975a1-cbf4-457b-98d4-a7ad72010ab5" data-name="Layer 1">
      <g>
        <path d="M118.88,35.78l1.72-2.1a12.24,12.24,0,0,0,1.13-13.77C123.82,24.75,123,29.46,118.88,35.78Z" fill="none"/>
        <path d="M324,71.41c-24.62.48-24.19,38.67,0,39.25C348.42,110.13,348.35,71.94,324,71.41Z" fill="none"/>
        <path d="M223.47,83.5h35.45C253.5,65.85,228.86,66.5,223.47,83.5Z" fill="none"/>
        <path d="M205.5,100.74c7.67,30,52.71,37.28,69.31,7.89l-15.07-6.79c-7.88,15-32.59,11.7-36.54-4.35h54.05c1.91-11.68-.67-21.73-7.74-30.29C246.47,40.15,195.33,59,205.5,100.74Zm18-17.24c5.39-17,30-17.65,35.45,0Z" fill="#164781"/>
        <path d="M305.5,64.21V55.93H287.17v97.25H305.5V117.73c32,30.58,76.25-16.65,46.32-52.7C340.07,51.35,316.49,51.41,305.5,64.21ZM324,110.66c-24.19-.58-24.62-38.77,0-39.25C348.35,71.94,348.42,110.13,324,110.66Z" fill="#164781"/>
        <polygon points="389.03 99.26 389.03 55.93 370.69 55.93 370.69 126.01 388.49 126.01 421.9 82.69 421.9 126.01 440.24 126.01 440.24 55.93 422.44 55.93 389.03 99.26" fill="#164781"/>
        <polygon points="454.9 55.93 454.9 126.01 473.24 126.01 473.24 72.09 503.66 72.09 503.66 126.01 522 126.01 522 55.93 454.9 55.93" fill="#164781"/>
        <polygon points="63.41 77.74 84.59 51.87 42.34 0.22 0 0.22 0 0.22 63.41 77.74" fill="url(#e8c4e1ee-72e4-46de-8988-d51a5abb5367)"/>
        <path d="M121.73,19.91c-.16-.28-.33-.56-.52-.84l-.67-.89c.24.29.46.59.67.89l.36.49C119.16,14.31,113.32,8.86,104.3,1,100.93-1,67,.73,63.51.22l42.23,51.62h0l13.13-16C123,29.46,123.82,24.75,121.73,19.91Z" fill="url(#e6d91289-cfaa-45e8-929d-89d0d926f29c)"/>
        <path d="M67,176.93c53.83-.6,35.36,6.78,68.8-32.31C182.54,85.91,185.91,97,158.71,64.83Z" fill="url(#fce705dc-5bf3-4d9e-a8ee-8c142a168d92)"/>
        <path d="M121.57,19.56c.06.12.11.23.16.35a12.24,12.24,0,0,1-1.13,13.77l-1.72,2.1c-2.81,4.38-7.16,9.53-13.13,16C75.67,88.58,10.57,168.12,3.37,176.93H45.74C164.5,28.14,155.64,64.78,121.57,19.56Z" fill="url(#a39277ac-11aa-43ce-866d-9561fc163f08)"/>
        <path d="M121.73,19.91c0-.12-.1-.23-.16-.35l-.36-.49C121.4,19.35,121.57,19.63,121.73,19.91Z" fill="url(#a5c3309c-f5ec-4436-a5d6-44174ee2ffd4)"/>
        <path d="M121.73,19.91c0-.12-.1-.23-.16-.35l-.36-.49C121.4,19.35,121.57,19.63,121.73,19.91Z" fill="url(#e10734de-14ca-486b-9318-96feb0a55dfc)"/>
        <path d="M121.21,19.07c-.21-.3-.43-.6-.67-.89Z" fill="url(#f623836e-533b-42bf-9d0c-4af8828d141b)"/>
        <path d="M121.21,19.07c-.21-.3-.43-.6-.67-.89Z" fill="url(#eda24894-e6b0-4dd6-9642-4f7a85806801)"/>
        <path d="M105.75,51.83c6-6.52,10.32-11.67,13.13-16Z" fill="url(#f062acab-dd57-49b1-962c-b9139dac6ab6)"/>
        <path d="M105.75,51.83c6-6.52,10.32-11.67,13.13-16Z" fill="url(#b2bd18c6-78a4-4383-9e7c-71fc5f51bfc3)"/>
      </g>
    </g>
  </g>
</svg>
