<svg xmlns="http://www.w3.org/2000/svg" xmlns:xlink="http://www.w3.org/1999/xlink" viewBox="0 0 304.22 307.23">
  <defs>
    <style>
      .ef9480ca-1efa-4379-8a26-b818ad16be10 {
        fill: url(#a2eaabde-77d4-42a6-9eee-fb882ed4d024);
      }

      .b8162903-7863-4dc8-9903-226cb2ea89f6 {
        fill: url(#afb00c80-25f1-4b66-b790-22fccad51b14);
      }

      .aa4f0aab-576a-4edd-a54a-69fff179cfa2 {
        fill: url(#bbbf47d2-d217-41f9-bc0f-271eef5a66c9);
      }

      .bf3328d3-5d70-403f-af60-e920c68c36db {
        clip-path: url(#fe126748-5330-4292-a9fd-cb80bd79b940);
      }

      .ee038b8a-9b1a-48aa-8083-b15d4bc89814 {
        fill: url(#e3922cfe-24b7-4da0-918d-8de611169387);
      }

      .b9c81266-a926-43af-a299-c049a530300f {
        clip-path: url(#a432915b-e064-4e64-955f-688e4d8c200c);
      }

      .ff54b3b4-1c9f-41f9-908b-148c98f2ea79 {
        fill: url(#acc8c713-5164-41e6-84f0-0944f12bd2f1);
      }

      .b91db9df-d236-471f-876b-ce3ac2bd59ce {
        clip-path: url(#b832cee9-ef59-460e-96f8-eef2ce26faae);
      }

      .e6b98aa4-d945-485b-bf1c-ef04e1f05ec7 {
        fill: url(#a47aed56-208a-4048-bda6-878100c3036c);
      }
    </style>
    <linearGradient id="a2eaabde-77d4-42a6-9eee-fb882ed4d024" x1="18" y1="38.87" x2="123.26" y2="38.87" gradientUnits="userSpaceOnUse">
      <stop offset="0" stop-color="#faac65"/>
      <stop offset="0.41" stop-color="#f68657"/>
      <stop offset="1" stop-color="#f05345"/>
    </linearGradient>
    <linearGradient id="afb00c80-25f1-4b66-b790-22fccad51b14" x1="78.32" y1="120.98" x2="175.76" y2="120.98" xlink:href="#a2eaabde-77d4-42a6-9eee-fb882ed4d024"/>
    <linearGradient id="bbbf47d2-d217-41f9-bc0f-271eef5a66c9" x1="13.32" y1="97.55" x2="143.87" y2="97.55" xlink:href="#a2eaabde-77d4-42a6-9eee-fb882ed4d024"/>
    <clipPath id="fe126748-5330-4292-a9fd-cb80bd79b940" transform="translate(73.04 61.92)">
      <path class="ef9480ca-1efa-4379-8a26-b818ad16be10" d="M0,.22,63.41,77.74,84.59,51.87,42.34.22Zm63.51,0,42.23,51.62C129.86,25.5,127.62,21.37,104.3,1,100.93-1,67,.73,63.51.22Z"/>
    </clipPath>
    <linearGradient id="e3922cfe-24b7-4da0-918d-8de611169387" x1="-7314.54" y1="-3702.53" x2="-7311.97" y2="-3702.53" gradientTransform="matrix(0, 47.46, 47.46, 0, 175767.02, 347102.63)" xlink:href="#a2eaabde-77d4-42a6-9eee-fb882ed4d024"/>
    <clipPath id="a432915b-e064-4e64-955f-688e4d8c200c" transform="translate(73.04 61.92)">
      <path class="b8162903-7863-4dc8-9903-226cb2ea89f6" d="M67,176.93c53.83-.6,35.36,6.78,68.8-32.31C182.54,85.91,185.91,97,158.71,64.83Z"/>
    </clipPath>
    <linearGradient id="acc8c713-5164-41e6-84f0-0944f12bd2f1" x1="-7508.94" y1="-3592.7" x2="-7506.37" y2="-3592.7" gradientTransform="matrix(-54.31, 0, 0, 54.31, -407601.6, 195228.37)" xlink:href="#a2eaabde-77d4-42a6-9eee-fb882ed4d024"/>
    <clipPath id="b832cee9-ef59-460e-96f8-eef2ce26faae" transform="translate(73.04 61.92)">
      <path class="aa4f0aab-576a-4edd-a54a-69fff179cfa2" d="M120.6,33.68C114.67,40.94,12.5,165.76,3.37,176.93H45.74c120-150.28,109.71-111.39,74.8-158.75a12.25,12.25,0,0,1,.06,15.5"/>
    </clipPath>
    <linearGradient id="a47aed56-208a-4048-bda6-878100c3036c" x1="-7503.26" y1="-3639.59" x2="-7500.69" y2="-3639.59" gradientTransform="matrix(-76.79, 0, 0, 76.79, -575986.86, 279570.52)" xlink:href="#a2eaabde-77d4-42a6-9eee-fb882ed4d024"/>
  </defs>
  <title>Ресурс 5</title>
  <g id="bda575e8-a4c9-4e28-bcde-39b1995b48a4" data-name="Слой 2">
    <g id="a45fcac1-d825-4938-bc20-b5d4916a12cc" data-name="Layer 1">
      <g>
        <g>
          <path class="ef9480ca-1efa-4379-8a26-b818ad16be10" d="M0,.22,63.41,77.74,84.59,51.87,42.34.22Zm63.51,0,42.23,51.62C129.86,25.5,127.62,21.37,104.3,1,100.93-1,67,.73,63.51.22Z" transform="translate(73.04 61.92)"/>
          <g class="bf3328d3-5d70-403f-af60-e920c68c36db">
            <rect class="ee038b8a-9b1a-48aa-8083-b15d4bc89814" x="-9.4" y="-32.17" width="143.12" height="142.3" transform="translate(63.49 116.4) rotate(-44.29)"/>
          </g>
        </g>
        <g>
          <path class="b8162903-7863-4dc8-9903-226cb2ea89f6" d="M67,176.93c53.83-.6,35.36,6.78,68.8-32.31C182.54,85.91,185.91,97,158.71,64.83Z" transform="translate(73.04 61.92)"/>
          <g class="b9c81266-a926-43af-a299-c049a530300f">
            <rect class="ff54b3b4-1c9f-41f9-908b-148c98f2ea79" x="44.14" y="43.1" width="155.92" height="155.57" transform="translate(25.06 207.13) rotate(-52.85)"/>
          </g>
        </g>
        <g>
          <path class="aa4f0aab-576a-4edd-a54a-69fff179cfa2" d="M120.6,33.68C114.67,40.94,12.5,165.76,3.37,176.93H45.74c120-150.28,109.71-111.39,74.8-158.75a12.25,12.25,0,0,1,.06,15.5" transform="translate(73.04 61.92)"/>
          <g class="b91db9df-d236-471f-876b-ce3ac2bd59ce">
            <rect class="e6b98aa4-d945-485b-bf1c-ef04e1f05ec7" x="-31.76" y="-7" width="212.33" height="209.1" transform="translate(24.76 159.87) rotate(-52.85)"/>
          </g>
        </g>
      </g>
    </g>
  </g>
</svg>
