<svg xmlns="http://www.w3.org/2000/svg" xmlns:xlink="http://www.w3.org/1999/xlink" viewBox="0 0 304.22 307.23">
  <defs>
    <linearGradient id="a" x1="18" y1="38.87" x2="123.26" y2="38.87" gradientUnits="userSpaceOnUse">
      <stop offset="0" stop-color="#faac65"/>
      <stop offset="0.41" stop-color="#f68657"/>
      <stop offset="1" stop-color="#f05345"/>
    </linearGradient>
    <linearGradient id="b" x1="78.32" y1="120.98" x2="175.76" y2="120.98" xlink:href="#a"/>
    <linearGradient id="c" x1="13.32" y1="97.55" x2="143.87" y2="97.55" xlink:href="#a"/>
    <clipPath id="e" transform="translate(73.04 61.92)">
      <path d="M0,.22,63.41,77.74,84.59,51.87,42.34.22Zm63.51,0,42.23,51.62C129.86,25.5,127.62,21.37,104.3,1,100.93-1,67,.73,63.51.22Z" style="fill: url(#a)"/>
    </clipPath>
    <linearGradient id="f" x1="-7314.54" y1="-3702.53" x2="-7311.97" y2="-3702.53" gradientTransform="matrix(0, 47.46, 47.46, 0, 175767.02, 347102.63)" xlink:href="#a"/>
    <clipPath id="h" transform="translate(73.04 61.92)">
      <path d="M67,176.93c53.83-.6,35.36,6.78,68.8-32.31C182.54,85.91,185.91,97,158.71,64.83Z" style="fill: url(#b)"/>
    </clipPath>
    <linearGradient id="i" x1="-7508.94" y1="-3592.7" x2="-7506.37" y2="-3592.7" gradientTransform="matrix(-54.31, 0, 0, 54.31, -407601.6, 195228.37)" xlink:href="#a"/>
    <clipPath id="k" transform="translate(73.04 61.92)">
      <path d="M120.6,33.68C114.67,40.94,12.5,165.76,3.37,176.93H45.74c120-150.28,109.71-111.39,74.8-158.75a12.25,12.25,0,0,1,.06,15.5" style="fill: url(#c)"/>
    </clipPath>
    <linearGradient id="l" x1="-7503.26" y1="-3639.59" x2="-7500.69" y2="-3639.59" gradientTransform="matrix(-76.79, 0, 0, 76.79, -575986.86, 279570.52)" xlink:href="#a"/>
  </defs>
  <title>Ресурс 4</title>
  <g>
    <g>
      <path d="M0,.22,63.41,77.74,84.59,51.87,42.34.22Zm63.51,0,42.23,51.62C129.86,25.5,127.62,21.37,104.3,1,100.93-1,67,.73,63.51.22Z" transform="translate(73.04 61.92)" style="fill: url(#a)"/>
      <g style="clip-path: url(#e)">
        <rect x="-9.4" y="-32.17" width="143.12" height="142.3" transform="translate(63.49 116.4) rotate(-44.29)" style="fill: url(#f)"/>
      </g>
    </g>
    <g>
      <path d="M67,176.93c53.83-.6,35.36,6.78,68.8-32.31C182.54,85.91,185.91,97,158.71,64.83Z" transform="translate(73.04 61.92)" style="fill: url(#b)"/>
      <g style="clip-path: url(#h)">
        <rect x="44.14" y="43.1" width="155.92" height="155.57" transform="translate(25.06 207.13) rotate(-52.85)" style="fill: url(#i)"/>
      </g>
    </g>
    <g>
      <path d="M120.6,33.68C114.67,40.94,12.5,165.76,3.37,176.93H45.74c120-150.28,109.71-111.39,74.8-158.75a12.25,12.25,0,0,1,.06,15.5" transform="translate(73.04 61.92)" style="fill: url(#c)"/>
      <g style="clip-path: url(#k)">
        <rect x="-31.76" y="-7" width="212.33" height="209.1" transform="translate(24.76 159.87) rotate(-52.85)" style="fill: url(#l)"/>
      </g>
    </g>
  </g>
</svg>
