<svg xmlns="http://www.w3.org/2000/svg" fill="none" viewBox="0 0 24 25">
    <path stroke="currentColor" stroke-linecap="round" stroke-linejoin="round" d="M.5 2.504a2 2 0 012-2h6a2 2 0 012 2v6a2 2 0 01-2 2h-6a2 2 0 01-2-2v-6z"/>
    <path stroke="currentColor" stroke-linecap="round" stroke-linejoin="round" d="M.5 3.504h10"/>
    <path stroke="currentColor" stroke-linecap="round" stroke-linejoin="round" d="M13.5 2.504a2 2 0 012-2h6a2 2 0 012 2v6a2 2 0 01-2 2h-6a2 2 0 01-2-2v-6z"/>
    <path stroke="currentColor" stroke-linecap="round" stroke-linejoin="round" d="M23.5 3.504h-10"/>
    <path stroke="currentColor" stroke-linecap="round" stroke-linejoin="round" d="M.5 15.504a2 2 0 012-2h6a2 2 0 012 2v6a2 2 0 01-2 2h-6a2 2 0 01-2-2v-6z"/>
    <path stroke="currentColor" stroke-linecap="round" stroke-linejoin="round" d="M.5 16.504h10"/>
    <path stroke="currentColor" stroke-linecap="round" stroke-linejoin="round" d="M13.5 15.504a2 2 0 012-2h6a2 2 0 012 2v6a2 2 0 01-2 2h-6a2 2 0 01-2-2v-6z"/>
    <path stroke="currentColor" stroke-linecap="round" stroke-linejoin="round" d="M23.5 16.504h-10"/>
</svg>
